<?xml version="1.0" encoding="UTF-8"?>
<svg width="338px" height="583px" viewBox="0 0 338 583" version="1.1" xmlns="http://www.w3.org/2000/svg" xmlns:xlink="http://www.w3.org/1999/xlink">
    <!-- Generator: Sketch 52.5 (67469) - http://www.bohemiancoding.com/sketch -->
    <title>Silver iPhone</title>
    <desc>Created with Sketch.</desc>
    <defs>
        <path d="M338,2.71794872 L338,103.282051 C338,104.783133 336.57238,106 334.811321,106 L330.028302,106 L330.028302,0 L334.811321,0 C336.57238,0 338,1.21686709 338,2.71794872 Z" id="path-1"></path>
        <filter x="-25.1%" y="-1.9%" width="150.2%" height="103.8%" filterUnits="objectBoundingBox" id="filter-2">
            <feGaussianBlur stdDeviation="1.5" in="SourceAlpha" result="shadowBlurInner1"></feGaussianBlur>
            <feOffset dx="-1" dy="0" in="shadowBlurInner1" result="shadowOffsetInner1"></feOffset>
            <feComposite in="shadowOffsetInner1" in2="SourceAlpha" operator="arithmetic" k2="-1" k3="1" result="shadowInnerInner1"></feComposite>
            <feColorMatrix values="0 0 0 0 0.223837135   0 0 0 0 0.246745883   0 0 0 0 0.349835247  0 0 0 0.0944859601 0" type="matrix" in="shadowInnerInner1"></feColorMatrix>
        </filter>
        <path d="M7.97169811,2.71794872 L7.97169811,46.8846154 C7.97169811,48.385697 6.54407779,49.6025641 4.78301887,49.6025641 L0,49.6025641 L0,0 L4.78301887,0 C6.54407779,0 7.97169811,1.21686709 7.97169811,2.71794872 Z" id="path-3"></path>
        <filter x="-25.1%" y="-4.0%" width="150.2%" height="108.1%" filterUnits="objectBoundingBox" id="filter-4">
            <feGaussianBlur stdDeviation="1.5" in="SourceAlpha" result="shadowBlurInner1"></feGaussianBlur>
            <feOffset dx="-1" dy="0" in="shadowBlurInner1" result="shadowOffsetInner1"></feOffset>
            <feComposite in="shadowOffsetInner1" in2="SourceAlpha" operator="arithmetic" k2="-1" k3="1" result="shadowInnerInner1"></feComposite>
            <feColorMatrix values="0 0 0 0 0.223837135   0 0 0 0 0.246745883   0 0 0 0 0.349835247  0 0 0 0.0944859601 0" type="matrix" in="shadowInnerInner1"></feColorMatrix>
        </filter>
        <path d="M7.97169811,59.1153846 L7.97169811,103.282051 C7.97169811,104.783133 6.54407779,106 4.78301887,106 L0,106 L0,56.3974359 L4.78301887,56.3974359 C6.54407779,56.3974359 7.97169811,57.614303 7.97169811,59.1153846 Z" id="path-5"></path>
        <filter x="-25.1%" y="-4.0%" width="150.2%" height="108.1%" filterUnits="objectBoundingBox" id="filter-6">
            <feGaussianBlur stdDeviation="1.5" in="SourceAlpha" result="shadowBlurInner1"></feGaussianBlur>
            <feOffset dx="-1" dy="0" in="shadowBlurInner1" result="shadowOffsetInner1"></feOffset>
            <feComposite in="shadowOffsetInner1" in2="SourceAlpha" operator="arithmetic" k2="-1" k3="1" result="shadowInnerInner1"></feComposite>
            <feColorMatrix values="0 0 0 0 0.223837135   0 0 0 0 0.246745883   0 0 0 0 0.349835247  0 0 0 0.0944859601 0" type="matrix" in="shadowInnerInner1"></feColorMatrix>
        </filter>
        <linearGradient x1="93.295976%" y1="46.3045842%" x2="22.0178738%" y2="61.9655624%" id="linearGradient-7">
            <stop stop-color="#E14ECA" offset="0%"></stop>
            <stop stop-color="#C5C9D3" stop-opacity="0" offset="100%"></stop>
        </linearGradient>
        <path d="M42.0954641,1.97771797e-14 L297.904536,1.53910234e-15 C311.151159,-8.94262785e-16 315.954704,1.37924847 320.797472,3.96918876 C325.640239,6.55912905 329.440871,10.3597612 332.030811,15.2025285 C334.620752,20.0452958 336,24.8488413 336,38.0954641 L336,544.904536 C336,558.151159 334.620752,562.954704 332.030811,567.797472 C329.440871,572.640239 325.640239,576.440871 320.797472,579.030811 C315.954704,581.620752 311.151159,583 297.904536,583 L42.0954641,583 C28.8488413,583 24.0452958,581.620752 19.2025285,579.030811 C14.3597612,576.440871 10.5591291,572.640239 7.96918876,567.797472 C5.37924847,562.954704 4,558.151159 4,544.904536 L4,38.0954641 C4,24.8488413 5.37924847,20.0452958 7.96918876,15.2025285 C10.5591291,10.3597612 14.3597612,6.55912905 19.2025285,3.96918876 C24.0452958,1.37924847 28.8488413,2.22105449e-14 42.0954641,1.97771797e-14 Z" id="path-8"></path>
        <filter x="-0.6%" y="-0.3%" width="101.2%" height="100.7%" filterUnits="objectBoundingBox" id="filter-9">
            <feGaussianBlur stdDeviation="0.5" in="SourceAlpha" result="shadowBlurInner1"></feGaussianBlur>
            <feOffset dx="0" dy="0" in="shadowBlurInner1" result="shadowOffsetInner1"></feOffset>
            <feComposite in="shadowOffsetInner1" in2="SourceAlpha" operator="arithmetic" k2="-1" k3="1" result="shadowInnerInner1"></feComposite>
            <feColorMatrix values="0 0 0 0 0.788235294   0 0 0 0 0.796078431   0 0 0 0 0.835294118  0 0 0 1 0" type="matrix" in="shadowInnerInner1" result="shadowMatrixInner1"></feColorMatrix>
            <feGaussianBlur stdDeviation="1.5" in="SourceAlpha" result="shadowBlurInner2"></feGaussianBlur>
            <feOffset dx="-1" dy="0" in="shadowBlurInner2" result="shadowOffsetInner2"></feOffset>
            <feComposite in="shadowOffsetInner2" in2="SourceAlpha" operator="arithmetic" k2="-1" k3="1" result="shadowInnerInner2"></feComposite>
            <feColorMatrix values="0 0 0 0 0.223837135   0 0 0 0 0.246745883   0 0 0 0 0.349835247  0 0 0 0.0944859601 0" type="matrix" in="shadowInnerInner2" result="shadowMatrixInner2"></feColorMatrix>
            <feMerge>
                <feMergeNode in="shadowMatrixInner1"></feMergeNode>
                <feMergeNode in="shadowMatrixInner2"></feMergeNode>
            </feMerge>
        </filter>
        <path d="M27.2110458,-8.20478617e-15 L271.452543,1.09935882e-15 C280.914417,-6.38759132e-16 284.345521,0.985177477 287.80464,2.83513483 C291.26376,4.68509218 293.978497,7.3998294 295.828454,10.8589489 C297.678412,14.3180684 298.663589,17.7491723 298.663589,27.2110458 L298.663589,525.730929 C298.663589,535.192802 297.678412,538.623906 295.828454,542.083026 C293.978497,545.542145 291.26376,548.256883 287.80464,550.10684 C284.345521,551.956797 280.914417,552.941975 271.452543,552.941975 L27.2110458,552.941975 C17.7491723,552.941975 14.3180684,551.956797 10.8589489,550.10684 C7.3998294,548.256883 4.68509218,545.542145 2.83513483,542.083026 C0.985177477,538.623906 -6.67958794e-15,535.192802 -7.83833324e-15,525.730929 L4.28561956e-15,27.2110458 C3.12687426e-15,17.7491723 0.985177477,14.3180684 2.83513483,10.8589489 C4.68509218,7.3998294 7.3998294,4.68509218 10.8589489,2.83513483 C14.3180684,0.985177477 17.7491723,-6.46666823e-15 27.2110458,-8.20478617e-15 Z" id="path-10"></path>
        <linearGradient x1="50%" y1="0%" x2="50%" y2="100%" id="linearGradient-12">
            <stop stop-color="#E04ECA" offset="0%"></stop>
            <stop stop-color="#171941" offset="100%"></stop>
        </linearGradient>
        <path d="M27.2110458,-8.20478617e-15 L271.452543,1.09935882e-15 C280.914417,-6.38759132e-16 284.345521,0.985177477 287.80464,2.83513483 C291.26376,4.68509218 293.978497,7.3998294 295.828454,10.8589489 C297.678412,14.3180684 298.663589,17.7491723 298.663589,27.2110458 L298.663589,525.730929 C298.663589,535.192802 297.678412,538.623906 295.828454,542.083026 C293.978497,545.542145 291.26376,548.256883 287.80464,550.10684 C284.345521,551.956797 280.914417,552.941975 271.452543,552.941975 L27.2110458,552.941975 C17.7491723,552.941975 14.3180684,551.956797 10.8589489,550.10684 C7.3998294,548.256883 4.68509218,545.542145 2.83513483,542.083026 C0.985177477,538.623906 -6.67958794e-15,535.192802 -7.83833324e-15,525.730929 L4.28561956e-15,27.2110458 C3.12687426e-15,17.7491723 0.985177477,14.3180684 2.83513483,10.8589489 C4.68509218,7.3998294 7.3998294,4.68509218 10.8589489,2.83513483 C14.3180684,0.985177477 17.7491723,-6.46666823e-15 27.2110458,-8.20478617e-15 Z" id="path-13"></path>
        <filter x="-0.3%" y="-0.2%" width="100.7%" height="100.4%" filterUnits="objectBoundingBox" id="filter-14">
            <feMorphology radius="1" operator="erode" in="SourceAlpha" result="shadowSpreadInner1"></feMorphology>
            <feOffset dx="0" dy="1" in="shadowSpreadInner1" result="shadowOffsetInner1"></feOffset>
            <feComposite in="shadowOffsetInner1" in2="SourceAlpha" operator="arithmetic" k2="-1" k3="1" result="shadowInnerInner1"></feComposite>
            <feColorMatrix values="0 0 0 0 0.790352433   0 0 0 0 0.799469041   0 0 0 0 0.845052083  0 0 0 1 0" type="matrix" in="shadowInnerInner1"></feColorMatrix>
        </filter>
    </defs>
    <g id="Page-1" stroke="none" stroke-width="1" fill="none" fill-rule="evenodd" opacity="0.114653088">
        <g id="13-inch-mac-copy" transform="translate(-756.000000, -124.000000)">
            <g id="Silver-iPhone" transform="translate(756.000000, 124.000000)">
                <g id="Buttons" transform="translate(0.000000, 115.000000)">
                    <g id="Rectangle">
                        <use fill="#89368E" fill-rule="evenodd" xlink:href="#path-1"></use>
                        <use fill="black" fill-opacity="1" filter="url(#filter-2)" xlink:href="#path-1"></use>
                    </g>
                    <g id="Rectangle-Copy" transform="translate(3.985849, 24.801282) scale(-1, 1) translate(-3.985849, -24.801282) ">
                        <use fill="#89368E" fill-rule="evenodd" xlink:href="#path-3"></use>
                        <use fill="black" fill-opacity="1" filter="url(#filter-4)" xlink:href="#path-3"></use>
                    </g>
                    <g id="Rectangle-Copy-2" transform="translate(3.985849, 81.198718) scale(-1, 1) translate(-3.985849, -81.198718) ">
                        <use fill="#89368E" fill-rule="evenodd" xlink:href="#path-5"></use>
                        <use fill="black" fill-opacity="1" filter="url(#filter-6)" xlink:href="#path-5"></use>
                    </g>
                </g>
                <g id="Body">
                    <use fill="#E14ECA" fill-rule="evenodd" xlink:href="#path-8"></use>
                    <use fill="url(#linearGradient-7)" fill-rule="evenodd" xlink:href="#path-8"></use>
                    <use fill="black" fill-opacity="1" filter="url(#filter-9)" xlink:href="#path-8"></use>
                </g>
                <g id="Screen" transform="translate(19.000000, 13.000000)">
                    <mask id="mask-11" fill="white">
                        <use xlink:href="#path-10"></use>
                    </mask>
                    <use id="Mask" fill="#E04ECA" xlink:href="#path-10"></use>
                    <g id="Frame" mask="url(#mask-11)">
                        <use fill="black" fill-opacity="1" filter="url(#filter-14)" xlink:href="#path-13"></use>
                        <path stroke="url(#linearGradient-12)" stroke-width="1.27358491" d="M27.2110458,0.636792453 C18.6805874,0.636792453 14.985571,1.35033304 11.1592595,3.39666682 C7.81111285,5.18727524 5.18727524,7.81111285 3.39666682,11.1592595 C1.35033304,14.985571 0.636792453,18.6805874 0.636792453,27.2110458 L0.636792453,525.730929 C0.636792453,534.261387 1.35033304,537.956404 3.39666682,541.782715 C5.18727524,545.130862 7.81111285,547.7547 11.1592595,549.545308 C14.985571,551.591642 18.6805874,552.305182 27.2110458,552.305182 L271.452543,552.305182 C279.983002,552.305182 283.678018,551.591642 287.50433,549.545308 C290.852476,547.7547 293.476314,545.130862 295.266922,541.782715 C297.313256,537.956404 298.026797,534.261387 298.026797,525.730929 L298.026797,27.2110458 C298.026797,18.6805874 297.313256,14.985571 295.266922,11.1592595 C293.476314,7.81111285 290.852476,5.18727524 287.50433,3.39666682 C283.678018,1.35033304 279.983002,0.636792453 271.452543,0.636792453 L27.2110458,0.636792453 Z" stroke-linejoin="square"></path>
                    </g>
                </g>
            </g>
        </g>
    </g>
</svg>